<svg width="1031" height="730" viewBox="0 0 1031 730" fill="none" xmlns="http://www.w3.org/2000/svg">
<g clip-path="url(#clip0_1_3)">
<path opacity="0.1" d="M793.663 655.21C910.394 655.21 1005.02 636.818 1005.02 614.13C1005.02 591.442 910.394 573.05 793.663 573.05C676.932 573.05 582.303 591.442 582.303 614.13C582.303 636.818 676.932 655.21 793.663 655.21Z" fill="#87FF63"/>
<g opacity="0.5">
<path opacity="0.5" d="M612.623 132.47C609.773 133.28 606.283 135.39 604.563 141.16C601.193 152.47 609.023 160.16 606.443 171.95C605.727 175.077 604.364 178.02 602.443 180.59C599.293 184.86 595.873 186.88 592.553 189.87C588.342 193.69 585.324 198.645 583.863 204.14C582.262 210.204 582.128 216.563 583.473 222.69C584.653 227.81 586.663 231.54 588.423 235.69C590.611 240.983 592.321 246.462 593.533 252.06C594.198 254.786 594.573 257.575 594.653 260.38C594.603 264.107 594.269 267.824 593.653 271.5L588.863 304.92C588.135 309.289 587.698 313.702 587.553 318.13C587.615 322.567 588.128 326.986 589.083 331.32C590.763 340.16 592.573 349.32 596.423 354C600.273 358.68 606.833 357 610.863 347.53C614.693 338.47 614.783 326.38 618.163 316.7C623.493 301.45 634.083 299.4 639.963 284.85C645.603 270.85 643.873 253.77 646.733 237.85C648.733 226.44 653.143 216.04 655.733 204.77C659.453 188.54 659.083 171.69 656.113 159.21C653.854 148.956 648.967 139.465 641.933 131.67C639.443 128.92 636.773 126.47 633.643 126.22C630.313 125.96 627.403 130.15 624.113 131.41C620.313 132.9 616.493 131.37 612.623 132.47Z" fill="#87FF63"/>
<path opacity="0.5" d="M630.653 127.07C630.653 127.07 625.013 271.41 601.293 356.52" stroke="#535461" stroke-width="2" stroke-miterlimit="10"/>
<path opacity="0.5" d="M604.423 141.84C604.423 141.84 629.773 164.92 624.963 208.84" stroke="#535461" stroke-width="2" stroke-miterlimit="10"/>
<path opacity="0.5" d="M583.153 207.52C583.153 207.52 624.763 215.89 621.673 240.78" stroke="#535461" stroke-width="2" stroke-miterlimit="10"/>
<path opacity="0.5" d="M656.183 158.91C656.183 158.91 639.343 173.65 624.343 215.4" stroke="#535461" stroke-width="2" stroke-miterlimit="10"/>
<path opacity="0.5" d="M639.733 285.09C639.733 285.09 628.243 294.09 619.023 262.58" stroke="#535461" stroke-width="2" stroke-miterlimit="10"/>
<path opacity="0.5" d="M590.153 303.5C590.153 303.5 613.583 300.44 615.743 285.77" stroke="#535461" stroke-width="2" stroke-miterlimit="10"/>
</g>
<path d="M669.263 35.6598C663.463 36.5198 656.483 39.2098 653.613 47.4998C647.983 63.7598 665.093 76.0698 661.153 93.0598C659.977 97.7354 657.502 101.983 654.013 105.31C648.013 111.22 641.153 113.8 634.653 117.81C628.153 121.82 621.403 128.13 618.353 137.81C615.423 147.12 616.693 157.4 619.743 165.08C622.793 172.76 627.403 178.49 631.523 184.81C636.53 192.589 640.715 200.867 644.013 209.51C645.676 213.449 646.793 217.598 647.333 221.84C647.863 227.04 647.193 232.63 646.523 238.1L640.573 286.84C639.783 293.32 638.983 299.9 639.433 306.14C639.943 313.33 642.073 319.61 644.173 325.74C648.693 338.96 653.533 352.74 662.063 360.02C670.593 367.3 683.973 365.74 691.183 352.2C698.043 339.31 696.783 321.52 702.633 307.67C711.853 285.84 733.533 284.07 743.963 263.35C753.963 243.47 748.373 218.04 752.393 194.94C755.273 178.39 763.073 163.59 767.073 147.3C772.843 123.83 770.073 98.9798 762.453 80.2998C754.833 61.6198 742.783 48.2998 729.853 38.0698C724.373 33.7198 718.563 29.7898 712.053 29.0698C705.133 28.2998 699.603 34.1198 692.953 35.5898C685.213 37.1998 677.133 34.4898 669.263 35.6598Z" fill="#87FF63"/>
<path d="M705.943 29.8398C705.943 29.8398 711.403 241.73 672.383 364.26" stroke="#535461" stroke-width="2" stroke-miterlimit="10"/>
<path d="M653.393 48.5198C653.393 48.5198 708.593 85.5198 703.863 149.68" stroke="#535461" stroke-width="2" stroke-miterlimit="10"/>
<path d="M617.163 142.69C617.163 142.69 704.283 159.95 700.843 196.23" stroke="#535461" stroke-width="2" stroke-miterlimit="10"/>
<path d="M762.553 79.7598C762.553 79.7598 729.443 99.4698 703.363 159.17" stroke="#535461" stroke-width="2" stroke-miterlimit="10"/>
<path d="M743.443 263.63C743.443 263.63 720.743 275.63 697.913 228.02" stroke="#535461" stroke-width="2" stroke-miterlimit="10"/>
<path d="M643.013 284.84C643.013 284.84 691.143 283.11 693.883 261.76" stroke="#535461" stroke-width="2" stroke-miterlimit="10"/>
<path opacity="0.1" d="M46.2529 607.5C47.0007 608.557 47.5933 609.715 48.0129 610.94C62.6929 628.18 70.5029 644.27 56.4029 644.68C43.2629 645.06 27.5029 668.55 23.7229 674.49C23.8476 674.948 23.9979 675.399 24.1729 675.84C24.1729 675.84 42.6529 645.11 57.6929 644.68C72.7329 644.25 62.8029 625.98 46.2529 607.5Z" fill="black"/>
<path d="M61.8329 621.47C61.8329 625.33 61.4029 628.47 60.8329 628.47C60.2629 628.47 59.8329 625.34 59.8329 621.47C59.8329 617.6 60.3729 619.47 60.9029 619.47C61.4329 619.47 61.8329 617.61 61.8329 621.47Z" fill="#FFD037"/>
<path d="M67.1828 626.07C63.7928 627.92 60.8428 629.07 60.5928 628.56C60.3428 628.05 62.8728 626.21 66.2628 624.37C69.6528 622.53 68.3128 623.87 68.5728 624.37C68.8328 624.87 70.5628 624.22 67.1828 626.07Z" fill="#FFD037"/>
<path opacity="0.1" d="M2.01289 607.5C1.28264 608.56 0.706875 609.718 0.302887 610.94C-14.3771 628.18 -22.1871 644.27 -8.08711 644.68C5.05289 645.06 20.8129 668.55 24.5929 674.49C24.4682 674.948 24.3179 675.399 24.1429 675.84C24.1429 675.84 5.66289 645.11 -9.37711 644.68C-24.4171 644.25 -14.5571 625.98 2.01289 607.5Z" fill="black"/>
<path d="M961.363 602.95C963.196 601.456 964.531 599.44 965.193 597.17C965.693 594.87 964.713 592.12 962.513 591.28C960.053 590.34 957.423 592.04 955.433 593.77C953.443 595.5 951.153 597.46 948.543 597.09C949.884 595.874 950.888 594.331 951.456 592.612C952.024 590.893 952.136 589.056 951.783 587.28C951.67 586.544 951.359 585.852 950.883 585.28C949.513 583.82 947.043 584.45 945.403 585.6C940.203 589.26 938.753 596.32 938.723 602.68C938.203 600.39 938.643 598 938.623 595.68C938.603 593.36 937.963 590.68 935.983 589.46C934.755 588.8 933.376 588.473 931.983 588.51C929.643 588.42 927.043 588.66 925.443 590.37C923.443 592.49 923.973 596.06 925.703 598.37C927.433 600.68 930.053 602.17 932.473 603.79C934.412 604.943 936.067 606.519 937.313 608.4C937.459 608.661 937.58 608.935 937.673 609.22H952.323C955.605 607.547 958.646 605.438 961.363 602.95Z" fill="#87FF63"/>
<path opacity="0.1" d="M125.733 509.23C157.553 549.69 145.193 608.8 124.973 656.13C118.203 671.98 110.543 688.75 113.403 705.74C116.893 726.52 135.403 741.74 154.923 749.74C190.423 764.42 232.923 760.92 265.533 740.63C293.723 723.09 313.913 694.57 342.583 677.83C390.583 649.83 451.643 660.4 503.743 679.69C540.603 693.34 580.903 711.1 617.533 696.83C643.303 686.83 661.123 662.36 670.833 636.46C675.523 623.95 678.923 610.46 687.833 600.46C693.153 594.57 700.093 590.38 707.213 586.86C772.213 554.65 854.213 571.86 917.293 536.18C959.903 512.06 987.183 466.55 999.293 419.1C1011.4 371.65 1009.96 321.89 1006.89 273.03C1004.71 238.3 1000.8 201.23 978.613 174.42C955.143 146.07 914.853 135.52 878.443 140.91C842.033 146.3 809.013 165.6 780.013 188.22C743.723 216.49 710.073 251.7 665.513 263.16C635.173 270.96 603.253 266.69 571.953 265.22C519.633 262.75 467.303 268.22 415.273 274.22C365.463 279.98 315.273 286.32 267.843 302.52C234.263 313.99 207.343 334.8 175.633 349.34C154.963 358.82 132.423 361.44 112.863 373.51C88.7529 388.38 66.6629 414.25 72.8629 444.51C78.6829 473.32 108.833 487.76 125.733 509.23Z" fill="#87FF63"/>
<path opacity="0.1" d="M531.353 509.21C767.548 509.21 959.023 490.818 959.023 468.13C959.023 445.442 767.548 427.05 531.353 427.05C295.157 427.05 103.683 445.442 103.683 468.13C103.683 490.818 295.157 509.21 531.353 509.21Z" fill="#87FF63"/>
<path opacity="0.1" d="M202.663 746.21C319.394 746.21 414.023 727.818 414.023 705.13C414.023 682.442 319.394 664.05 202.663 664.05C85.932 664.05 -8.69714 682.442 -8.69714 705.13C-8.69714 727.818 85.932 746.21 202.663 746.21Z" fill="#87FF63"/>
<path d="M418.723 455.32L415.373 460.19C415.373 460.19 419.023 465.06 419.373 465.67C419.723 466.28 430.023 465.37 430.023 465.37L430.933 461.72L429.413 457.46L418.723 455.32Z" fill="#E6E6F0"/>
<path d="M306.093 452.58L299.393 453.79L303.653 462.02L308.223 464.45L312.483 467.49L313.703 464.15L310.653 457.75L306.093 452.58Z" fill="#FDC2CC"/>
<path d="M415.683 373.43C415.683 373.43 451.303 381.95 457.993 391.43C457.993 391.43 464.083 396.61 457.993 406.04C451.903 415.47 443.383 436.79 443.383 436.79C443.383 436.79 437.293 457.49 434.863 459.01C432.433 460.53 418.423 461.75 417.203 456.01C417.203 456.01 425.113 443.53 425.113 437.74C425.113 431.95 438.203 404.56 438.203 404.56C438.203 404.56 408.373 401.21 398.933 403.34C389.493 405.47 403.203 370.08 415.683 373.43Z" fill="#565171"/>
<path opacity="0.1" d="M415.683 373.43C415.683 373.43 451.303 381.95 457.993 391.43C457.993 391.43 464.083 396.61 457.993 406.04C451.903 415.47 443.383 436.79 443.383 436.79C443.383 436.79 437.293 457.49 434.863 459.01C432.433 460.53 418.423 461.75 417.203 456.01C417.203 456.01 425.113 443.53 425.113 437.74C425.113 431.95 438.203 404.56 438.203 404.56C438.203 404.56 408.373 401.21 398.933 403.34C389.493 405.47 403.203 370.08 415.683 373.43Z" fill="black"/>
<path d="M408.373 381.65C408.303 383.42 408.113 385.41 407.843 387.55C405.893 403.05 399.543 426.1 399.543 426.1C399.543 426.1 393.153 439.8 391.323 448.63C389.493 457.46 377.013 459.63 377.013 459.63C377.013 459.63 342.913 463.63 335.913 462.07C328.913 460.51 317.913 466.64 312.473 465.72C307.033 464.8 303.643 452.02 303.643 452.02C313.085 452.075 322.428 450.104 331.043 446.24C345.043 439.85 365.143 442.89 365.143 442.89C366.642 442.454 368.036 441.717 369.24 440.723C370.444 439.729 371.432 438.5 372.143 437.11C374.273 432.54 374.273 404.84 373.663 403.01C369.663 391.01 369.993 383.31 371.143 378.82C371.528 376.859 372.394 375.024 373.663 373.48L408.373 381.65Z" fill="#565171"/>
<path opacity="0.1" d="M408.373 381.65C408.303 383.42 408.113 385.41 407.843 387.55C404.783 387.79 396.203 388.02 389.843 384.09C383.843 380.41 375.113 379.16 371.183 378.77C371.568 376.809 372.434 374.974 373.703 373.43L408.373 381.65Z" fill="black"/>
<path d="M412.583 377.84C411.163 381.84 408.983 386.53 408.983 386.53C408.983 386.53 397.723 388.05 389.803 383.18C381.883 378.31 369.103 377.7 369.103 377.7C371.173 376.43 372.573 372.57 373.443 369.19C373.929 367.279 374.309 365.343 374.583 363.39C374.583 363.39 412.023 371 413.583 372.22C414.163 372.7 413.543 375.12 412.583 377.84Z" fill="#E6E6F0"/>
<path d="M479.303 249.53L433.893 276.94L429.383 279.66V266.27L432.513 264.77L470.783 246.48C470.783 246.48 472.613 213.3 477.483 218.48C482.353 223.66 479.303 249.53 479.303 249.53Z" fill="#FDC2CC"/>
<path opacity="0.1" d="M433.893 276.94L429.383 279.66V266.27L432.513 264.77C432.72 268.851 433.181 272.916 433.893 276.94Z" fill="black"/>
<path d="M398.943 281.84L431.513 262.97C431.513 262.97 432.123 281.24 435.773 283.97C435.773 283.97 422.383 287.97 417.203 296.45L398.943 281.84Z" fill="#B45181"/>
<path opacity="0.1" d="M398.943 281.84L431.513 262.97C431.513 262.97 432.123 281.24 435.773 283.97C435.773 283.97 422.383 287.97 417.203 296.45L398.943 281.84Z" fill="black"/>
<path d="M479.013 297.93C479.013 297.93 463.523 304.68 453.263 307.16C450.954 307.856 448.539 308.134 446.133 307.98C439.133 306.76 447.963 297.98 447.963 297.98L451.643 297.41L471.403 294.33C471.403 294.33 473.533 263.89 477.183 266.33C480.833 268.77 479.013 297.93 479.013 297.93Z" fill="#FDC2CC"/>
<path d="M413.553 270.53C413.553 270.53 400.463 280.27 405.333 292.45C410.203 304.63 380.063 285.14 380.063 285.14C380.063 285.14 389.803 270.53 391.933 259.57C394.063 248.61 413.553 270.53 413.553 270.53Z" fill="#FDC2CC"/>
<path opacity="0.1" d="M412.583 377.84C406.921 375.707 401.004 374.329 394.983 373.74C386.183 372.74 378.123 371.05 373.453 369.19C373.939 367.279 374.319 365.343 374.593 363.39C374.593 363.39 412.033 371 413.593 372.22C414.163 372.7 413.543 375.12 412.583 377.84Z" fill="black"/>
<path opacity="0.1" d="M453.253 307.16C450.944 307.856 448.529 308.134 446.123 307.98C439.123 306.76 447.953 297.98 447.953 297.98L451.633 297.41C453.173 299.78 454.743 303.48 453.253 307.16Z" fill="black"/>
<path d="M392.243 276.01C392.243 276.01 380.373 275.71 376.113 280.58C371.853 285.45 372.763 298.58 372.763 298.58C372.763 298.58 371.873 324.87 378.543 339.58C378.763 340.055 378.788 340.597 378.613 341.09C378.543 341.27 378.543 341.16 378.543 341.16C378.543 341.16 374.283 360.34 370.023 363.69C365.763 367.04 379.153 371 395.023 372.82C410.893 374.64 417.243 379.21 417.243 379.21C417.243 379.21 419.983 376.21 420.243 369.47C420.503 362.73 416.013 313.76 416.013 313.76C416.013 313.76 432.753 318.02 442.803 312.85C442.803 312.85 447.373 315.29 451.633 308.59C455.893 301.89 448.633 294.59 448.633 294.59C448.633 294.59 441.933 301.29 423.363 292.46C404.793 283.63 398.013 275.71 392.243 276.01Z" fill="#B45181"/>
<path d="M301.223 453.19H297.573V458.37L301.223 466.59C301.223 466.59 306.093 467.5 306.403 467.5C306.713 467.5 310.663 466.59 310.663 466.59L311.883 464.46C311.883 464.46 298.483 459.27 301.223 453.19Z" fill="#E6E6F0"/>
<path d="M415.683 458.06L410.203 470.24L433.343 481.24L451.613 481.85C451.613 481.85 453.133 477.59 447.043 475.46L442.173 474.55C442.173 474.55 435.783 462.98 435.173 457.55C435.173 457.55 429.083 458.77 428.173 463.33C428.163 463.23 419.643 467.49 415.683 458.06Z" fill="#B45181"/>
<path d="M298.483 451.97L296.623 453.49L288.443 460.19L307.313 485.19C307.313 485.19 317.963 489.76 322.843 485.19C322.843 485.19 325.843 482.19 319.193 479.71C319.193 479.71 314.013 480.62 314.013 475.45C314.013 470.28 315.233 464.8 317.013 463.58C317.013 463.58 312.443 462.06 311.233 463.28C310.302 464.306 309.484 465.429 308.793 466.63C308.793 466.63 297.873 462.32 298.483 451.97Z" fill="#B45181"/>
<path opacity="0.1" d="M391.333 260.18C391.024 261.724 390.616 263.247 390.113 264.74C391.694 268.544 394.696 271.581 398.481 273.208C402.265 274.834 406.535 274.921 410.383 273.45C411.186 272.622 412.044 271.85 412.953 271.14C412.953 271.14 393.463 249.22 391.333 260.18Z" fill="black"/>
<path opacity="0.1" d="M389.653 300.84C389.653 300.84 399.093 313.32 412.793 313.63Z" fill="black"/>
<g opacity="0.1">
<path opacity="0.1" d="M446.073 313.06C445.88 313.006 445.693 312.936 445.513 312.85C445.22 313.003 444.92 313.146 444.613 313.28C445.107 313.27 445.598 313.196 446.073 313.06Z" fill="black"/>
<path opacity="0.1" d="M449.313 295.84C448.982 295.414 448.628 295.007 448.253 294.62C448.253 294.62 446.253 296.62 441.313 297C444.034 297.27 446.78 296.872 449.313 295.84V295.84Z" fill="black"/>
<path opacity="0.1" d="M418.723 313.76L418.783 314.41C422.799 315.154 426.88 315.489 430.963 315.41C426.839 315.26 422.739 314.707 418.723 313.76V313.76Z" fill="black"/>
<path opacity="0.1" d="M397.723 372.84C381.893 371.01 368.503 367.06 372.723 363.71C376.943 360.36 381.243 341.18 381.243 341.18C381.243 341.18 381.243 341.29 381.313 341.11C381.488 340.617 381.463 340.075 381.243 339.6C374.573 324.85 375.463 298.6 375.463 298.6C375.463 298.6 374.553 285.51 378.813 280.6C381.983 276.97 389.373 276.22 392.943 276.07C392.61 276.044 392.276 276.044 391.943 276.07C391.943 276.07 380.073 275.77 375.813 280.64C371.553 285.51 372.463 298.64 372.463 298.64C372.463 298.64 371.573 324.93 378.243 339.64C378.463 340.115 378.488 340.657 378.313 341.15C378.243 341.33 378.243 341.22 378.243 341.22C378.243 341.22 374.013 360.34 369.713 363.69C365.413 367.04 378.843 371 394.713 372.82C410.583 374.64 416.933 379.21 416.933 379.21C417.251 378.828 417.533 378.416 417.773 377.98C414.683 376.49 408.323 374.04 397.723 372.84Z" fill="black"/>
</g>
<path d="M405.333 273.88C414.076 273.88 421.163 266.792 421.163 258.05C421.163 249.307 414.076 242.22 405.333 242.22C396.59 242.22 389.503 249.307 389.503 258.05C389.503 266.792 396.59 273.88 405.333 273.88Z" fill="#FDC2CC"/>
<path opacity="0.1" d="M427.863 250.97C426.553 254.25 422.643 255.49 419.213 256.34C414.313 257.54 409.033 258.72 404.343 256.86C403.735 256.519 403.034 256.382 402.343 256.47C401.786 256.693 401.321 257.099 401.023 257.62C395.853 264.98 396.693 274.79 395.353 283.69C394.933 286.46 394.223 289.32 392.353 291.39C388.713 295.39 381.843 295.24 378.493 299.49C376.283 302.29 376.263 306.18 376.283 309.75C376.283 313.556 376.25 317.366 376.183 321.18C376.123 323.68 376.003 326.27 374.873 328.49C372.953 332.25 368.673 334.04 364.723 335.49C362.263 336.41 359.723 337.34 357.083 337.09C354.443 336.84 351.803 335.09 351.463 332.45C350.993 328.87 354.683 326.37 357.223 323.79C361.283 319.68 362.953 313.7 363.103 307.92C363.246 305.585 362.905 303.247 362.103 301.05C361.173 298.78 359.513 296.87 358.513 294.63C355.433 287.73 359.233 279.75 363.783 273.71C368.333 267.67 373.923 261.78 374.893 254.29C374.977 252.669 375.208 251.059 375.583 249.48C376.283 247.3 377.943 241.28 379.773 239.9C382.703 237.693 386.142 236.262 389.773 235.74C392.583 235.33 395.453 235.48 398.243 234.94C401.503 234.31 404.533 232.76 407.793 232.18C414.843 230.93 422.493 239.12 425.583 245.58C426.433 247.56 428.663 248.96 427.863 250.97Z" fill="black"/>
<path d="M427.863 250.36C426.553 253.64 422.643 254.88 419.213 255.73C414.313 256.93 409.033 258.11 404.343 256.25C403.735 255.909 403.034 255.772 402.343 255.86C401.786 256.083 401.321 256.489 401.023 257.01C395.853 264.37 396.693 274.18 395.353 283.08C394.933 285.85 394.223 288.71 392.353 290.78C388.713 294.78 381.843 294.63 378.493 298.88C376.283 301.68 376.263 305.57 376.283 309.14C376.283 312.946 376.25 316.756 376.183 320.57C376.123 323.07 376.003 325.66 374.873 327.88C372.953 331.64 368.673 333.43 364.723 334.88C362.263 335.8 359.723 336.73 357.083 336.48C354.443 336.23 351.803 334.48 351.463 331.84C350.993 328.26 354.683 325.76 357.223 323.18C361.283 319.07 362.953 313.09 363.103 307.31C363.246 304.975 362.905 302.637 362.103 300.44C361.173 298.17 359.513 296.26 358.513 294.02C355.433 287.12 359.233 279.14 363.783 273.1C368.333 267.06 373.923 261.17 374.893 253.68C374.977 252.059 375.208 250.449 375.583 248.87C376.283 246.69 377.943 240.67 379.773 239.29C382.703 237.083 386.142 235.652 389.773 235.13C392.583 234.72 395.453 234.87 398.243 234.33C401.503 233.7 404.533 232.15 407.793 231.57C414.843 230.32 422.493 238.51 425.583 244.97C426.433 246.95 428.663 248.35 427.863 250.36Z" fill="#F569BC"/>
<path d="M479.013 219.93H742.183V483.08H479.013V219.93Z" fill="#F7DF1E"/>
<path d="M548.223 439.84L568.363 427.65C572.253 434.54 575.783 440.37 584.263 440.37C592.393 440.37 597.513 437.19 597.513 424.83V340.74H622.243V425.17C622.243 450.78 607.243 462.44 585.323 462.44C565.543 462.44 554.063 452.19 548.233 439.83L548.223 439.84ZM635.673 437.18L655.803 425.52C661.103 434.18 667.993 440.52 680.183 440.52C690.433 440.52 696.963 435.4 696.963 428.33C696.963 419.85 690.253 416.85 678.963 411.9L672.783 409.25C654.943 401.66 643.103 392.12 643.103 371.98C643.103 353.43 657.233 339.3 679.313 339.3C695.033 339.3 706.313 344.78 714.463 359.08L695.213 371.45C690.973 363.85 686.383 360.85 679.313 360.85C672.073 360.85 667.473 365.44 667.473 371.45C667.473 378.87 672.063 381.87 682.663 386.45L688.843 389.1C709.843 398.1 721.703 407.29 721.703 427.96C721.703 450.22 704.213 462.41 680.703 462.41C657.703 462.41 642.903 451.41 635.703 437.15" fill="black"/>
<path d="M857.623 629.12C857.623 629.12 847.353 629.84 841.013 618.84C839.774 616.625 838.309 614.544 836.643 612.63C834.596 609.274 833.532 605.411 833.573 601.48C833.923 593.33 825.423 548.69 825.423 548.69C825.423 548.69 826.483 531.69 817.983 521.06C812.383 514.06 804.333 494.06 799.483 481.14C799.808 481.43 800.2 481.636 800.623 481.74L800.423 480.63H800.623L798.113 466.84C794.458 462.639 791.378 457.972 788.953 452.96L789.523 452.84L797.043 451.26C797.043 451.26 809.263 433.89 810.043 425.35H811.043H812.453C823.764 425.288 835.07 425.879 846.313 427.12V427.12C846.313 427.07 846.233 426.85 846.133 426.5C845.657 424.781 845.289 423.034 845.033 421.27H845.733L852.733 420.81C852.733 420.81 876.823 393.89 867.963 388.93C859.103 383.97 849.893 411.25 849.893 411.25L846.893 411.79L846.083 411.94C846.163 411.82 846.243 411.71 846.333 411.6C846.423 411.49 807.013 409.84 800.943 400.26C800.943 400.26 783.583 386.44 782.873 377.26C782.745 375.355 782.095 373.523 780.994 371.963C779.894 370.404 778.385 369.178 776.633 368.42C774.488 367.396 772.113 366.951 769.743 367.13L761.613 367.69L762.183 368.69H761.953C761.443 367.521 761.015 366.318 760.673 365.09H760.843C760.783 364.84 760.733 364.59 760.683 364.34C763.174 363.752 765.523 362.671 767.589 361.159C769.655 359.647 771.396 357.736 772.71 355.539C774.024 353.342 774.883 350.904 775.238 348.369C775.592 345.833 775.434 343.253 774.773 340.78C775.568 340.882 776.375 340.858 777.163 340.71C780.163 340.1 782.273 337.06 782.353 334.02C782.353 333.82 782.353 333.62 782.353 333.43C782.353 333.43 782.353 333.35 782.353 333.31C782.323 331.782 781.953 330.281 781.27 328.914C780.586 327.547 779.607 326.35 778.403 325.41C776.783 324.06 774.843 323.1 773.403 321.6C771.653 319.81 770.693 317.41 769.333 315.3C767.055 311.81 763.676 309.18 759.733 307.83C756.803 306.83 753.203 306.73 750.953 308.83C749.793 309.92 749.123 311.5 747.823 312.42C745.953 313.76 743.413 313.36 741.123 313.63C739.049 313.949 737.086 314.773 735.406 316.031C733.727 317.288 732.383 318.94 731.493 320.84C730.37 323.219 729.829 325.831 729.913 328.46C729.888 330.264 730.103 332.063 730.553 333.81C730.993 335.55 731.643 337.23 732.123 338.97C733.123 342.57 733.353 346.36 734.503 349.91C735.276 352.545 736.818 354.888 738.933 356.64L738.593 358.1C738.373 358.1 732.853 359.33 729.043 367.66C726.043 374.23 715.833 381.01 711.343 383.75C710.506 384.262 709.779 384.936 709.205 385.733C708.632 386.53 708.223 387.433 708.003 388.39C707.572 390.322 707.38 392.301 707.433 394.28C707.353 398.55 708.243 404.46 711.673 411.95C719.463 428.95 725.133 436.39 725.133 436.39C725.133 436.39 725.563 441.6 725.593 447.09C725.593 451.18 725.293 455.25 724.423 457.29C723.683 459.01 723.423 463.4 723.483 468.42C723.483 478.04 724.423 490.59 724.423 490.59C724.423 490.59 727.133 491.11 731.323 491.72L733.933 537.64C734.261 543.201 732.475 548.68 728.933 552.98C727.102 555.241 724.988 557.258 722.643 558.98C715.203 564.29 699.263 620.27 699.263 620.27C699.263 620.27 700.043 620.27 701.323 620.42L696.423 634.09C696.423 634.09 716.003 649.09 727.913 644.99C729.203 644.569 730.557 644.38 731.913 644.43C734.263 644.43 739.293 642.57 736.493 640.12C731.086 635.141 725.987 629.837 721.223 624.24C721.606 624.427 721.974 624.645 722.323 624.89V624.78L722.493 624.89C722.493 624.89 722.493 624.34 722.623 623.44L722.453 623.38C722.813 619.7 723.953 610.38 726.213 609.3C729.043 607.88 749.953 566.43 749.953 566.43L770.853 512.58C770.853 512.58 787.503 541.28 801.673 546.23V558.23C801.673 558.23 809.463 593.66 812.303 597.55C815.143 601.44 812.303 617.03 812.303 617.03C812.863 617.671 813.505 618.236 814.213 618.71L811.943 631.55C811.943 631.55 828.243 630.84 855.873 639.34C855.853 639.39 866.483 634.79 857.623 629.12ZM792.443 443.84L788.993 444.7L788.313 444.87C788.243 444.44 788.193 444.19 788.193 444.19C787.401 444.547 786.55 444.754 785.683 444.8C784.46 440.926 783.754 436.908 783.583 432.85C782.422 427.993 781.716 423.038 781.473 418.05C781.473 415.47 781.903 413.22 782.873 411.95L784.023 412.04L784.823 412.8L784.883 412.85L785.293 413.22L785.723 413.6L785.793 413.66L786.253 414.07L786.333 414.14L786.803 414.54L787.333 414.98L787.453 415.08L788.013 415.53L788.563 415.97L788.693 416.07L789.303 416.53L789.433 416.62L790.013 417.05L790.113 417.12L790.773 417.59L790.933 417.7L791.633 418.18H791.693L792.373 418.63L792.533 418.74L793.263 419.21L793.423 419.31L794.103 419.73L794.233 419.81L795.013 420.27L795.203 420.38L796.013 420.83H796.073L796.863 421.25L797.053 421.35L797.893 421.77L798.063 421.85L798.843 422.21L798.993 422.28L799.873 422.66L800.083 422.75L800.993 423.12C795.343 429.34 792.443 443.84 792.443 443.84Z" fill="url(#paint0_linear_1_3)"/>
<path d="M705.063 612L698.493 630.33C698.493 630.33 716.493 644.13 728.193 641.27C729.956 640.831 731.752 640.54 733.563 640.4C735.983 640.22 740.153 638.45 737.563 636.21C729.263 628.95 718.193 615.46 718.193 615.46L705.063 612Z" fill="#4F4D59"/>
<path d="M814.353 610.27L811.243 627.91C811.243 627.91 827.153 627.22 854.133 635.52C854.133 635.52 864.513 631.02 855.863 625.52C855.863 625.52 845.863 626.21 839.613 615.52C833.363 604.83 829.613 606.18 829.613 606.18L814.353 610.27Z" fill="#4F4D59"/>
<path d="M732.013 482.31L735.013 535.99C735.342 541.71 733.446 547.335 729.723 551.69C728.04 553.689 726.123 555.479 724.013 557.02C716.753 562.21 701.183 616.85 701.183 616.85C701.183 616.85 718.823 617.85 723.663 621.35C723.663 621.35 724.663 607.52 727.463 606.13C730.263 604.74 750.633 564.28 750.633 564.28L771.043 511.71C771.043 511.71 787.293 539.71 801.133 544.57V556.33C801.133 556.33 808.743 590.92 811.513 594.72C814.283 598.52 811.513 613.72 811.513 613.72C811.513 613.72 819.513 623.72 837.793 613.03C837.793 613.03 831.913 606.46 832.263 598.5C832.613 590.54 824.263 546.97 824.263 546.97C824.263 546.97 825.263 530.37 817.003 519.97C808.743 509.57 795.013 469.84 795.013 469.84L785.493 449.36L732.013 482.31Z" fill="#C48C96"/>
<g opacity="0.1">
<path opacity="0.1" d="M704.543 616.84C704.543 616.84 720.103 562.2 727.373 557.01C729.603 555.375 731.619 553.467 733.373 551.33C736.922 547.034 738.709 541.552 738.373 535.99L735.323 482.3L786.323 450.86L785.633 449.37L732.213 482.31L735.263 536C735.599 541.562 733.812 547.044 730.263 551.34C728.509 553.477 726.493 555.385 724.263 557.02C717.013 562.2 701.433 616.84 701.433 616.84C701.433 616.84 719.073 617.84 723.913 621.34C723.913 621.34 723.913 620.8 724.043 619.93C717.233 617.59 704.543 616.84 704.543 616.84Z" fill="black"/>
<path opacity="0.1" d="M814.873 613.73C814.873 613.73 817.643 598.51 814.873 594.73C812.103 590.95 804.493 556.34 804.493 556.34V544.56C790.663 539.72 774.403 511.7 774.403 511.7L773.203 514.84C777.893 522.28 790.403 540.74 801.393 544.58V556.34C801.393 556.34 809.003 590.93 811.773 594.73C814.543 598.53 811.773 613.73 811.773 613.73C811.773 613.73 815.633 618.59 824.153 617.93C817.783 617.4 814.873 613.73 814.873 613.73Z" fill="black"/>
</g>
<path d="M851.013 422.13L844.223 422.58L840.643 422.82V414.17L845.343 413.32L848.253 412.79C848.253 412.79 857.253 386.16 865.893 391C874.533 395.84 851.013 422.13 851.013 422.13Z" fill="#714B4F"/>
<path d="M742.073 350.84C742.073 350.84 737.573 368.13 736.193 378.84C734.813 389.55 768.353 380.92 768.353 380.92C768.353 380.92 755.553 365.36 762.823 357.06L742.073 350.84Z" fill="#714B4F"/>
<path d="M778.383 422.84L779.073 429.41L768.353 428.72L757.633 419.38L746.913 389.28L740.013 378.55L734.823 371.98L736.903 363.98C736.903 363.98 737.853 364.81 739.453 366.03C744.723 370.03 757.073 378.44 766.103 376.12C766.52 376.015 766.931 375.884 767.333 375.73L780.823 398.9L778.383 422.84Z" fill="#E6E6F0"/>
<path opacity="0.1" d="M739.653 361.95C739.653 361.95 734.123 362.95 730.313 371.29C727.393 377.67 717.513 384.29 713.103 386.96C712.262 387.473 711.532 388.15 710.956 388.951C710.381 389.751 709.972 390.659 709.753 391.62C708.863 395.56 708.523 402.91 713.363 413.48C720.973 430.08 726.503 437.34 726.503 437.34C726.503 437.34 727.883 453.94 725.813 458.78C723.743 463.62 725.813 490.25 725.813 490.25C725.813 490.25 762.123 497.17 774.233 490.25C786.343 483.33 784.613 456.7 784.613 456.7C784.613 456.7 796.023 480.91 800.173 481.6L797.753 468.11C797.753 468.11 784.263 453.58 783.573 434.91C783.573 434.91 779.423 417.96 782.883 413.47C782.883 413.47 841.333 418.31 844.793 414.16C844.793 414.16 806.403 412.43 800.523 403.09C800.523 403.09 783.573 389.6 782.883 380.61C782.782 378.922 782.253 377.288 781.345 375.862C780.437 374.436 779.18 373.265 777.693 372.46C775.34 371.122 772.641 370.519 769.943 370.73L762.133 371.27C762.133 371.27 775.623 395.13 774.933 398.27C774.243 401.41 775.623 426.63 775.623 426.63C775.623 426.63 760.013 393.08 753.143 389.28C746.273 385.48 738.263 369.84 738.263 369.84L739.643 361.94" fill="black"/>
<path opacity="0.1" d="M778.383 422.84L779.073 429.41L768.353 428.72L757.633 419.38L746.913 389.28L740.013 378.55L734.823 371.98L736.903 363.98C736.903 363.98 737.853 364.81 739.453 366.03L738.973 368.76C738.973 368.76 746.973 384.38 753.843 388.19C760.713 392 776.323 425.54 776.323 425.54C776.323 425.54 774.943 400.29 775.633 397.18C776.103 395.07 770.043 383.41 766.103 376.12C766.52 376.015 766.931 375.884 767.333 375.73L780.823 398.9L778.383 422.84Z" fill="black"/>
<path opacity="0.1" d="M844.223 422.58L840.643 422.82V414.17L845.343 413.32C843.703 415.49 843.763 419.33 844.223 422.58Z" fill="black"/>
<path d="M739.653 360.92C739.653 360.92 734.123 361.92 730.313 370.26C727.393 376.64 717.513 383.26 713.103 385.93C712.262 386.443 711.532 387.12 710.956 387.921C710.381 388.721 709.972 389.629 709.753 390.59C708.863 394.53 708.523 401.88 713.363 412.45C720.973 429.05 726.503 436.31 726.503 436.31C726.503 436.31 727.883 452.91 725.813 457.75C723.743 462.59 725.813 489.22 725.813 489.22C725.813 489.22 762.123 496.14 774.233 489.22C786.343 482.3 784.613 455.67 784.613 455.67C784.613 455.67 796.013 479.84 800.173 480.58L797.753 467.09C797.753 467.09 784.263 452.56 783.573 433.89C783.573 433.89 779.423 416.94 782.883 412.45C782.883 412.45 796.373 426.98 811.593 426.63C822.684 426.563 833.769 427.141 844.793 428.36C844.793 428.36 841.333 417.29 844.793 413.14C844.793 413.14 806.403 411.41 800.523 402.07C800.523 402.07 783.573 388.58 782.883 379.59C782.782 377.902 782.253 376.268 781.345 374.842C780.437 373.416 779.18 372.245 777.693 371.44C775.34 370.102 772.641 369.499 769.943 369.71L762.133 370.25C762.133 370.25 775.623 394.11 774.933 397.25C774.243 400.39 775.623 425.61 775.623 425.61C775.623 425.61 760.013 392.04 753.143 388.24C746.273 384.44 738.263 368.84 738.263 368.84L739.643 360.94" fill="#C48C96"/>
<path opacity="0.1" d="M732.013 397.23C732.013 397.23 740.313 425.23 745.153 428.7C749.993 432.17 779.393 449.8 788.043 445.65C788.043 445.65 790.123 456.03 787.043 458.45C787.043 458.45 754.793 457.19 754.533 457.07C754.533 457.07 733.433 454.3 729.973 443.93C726.513 433.56 722.363 415.93 722.363 415.93L732.013 397.23Z" fill="black"/>
<path d="M776.313 428.88C776.981 428.88 777.523 428.105 777.523 427.15C777.523 426.194 776.981 425.42 776.313 425.42C775.645 425.42 775.103 426.194 775.103 427.15C775.103 428.105 775.645 428.88 776.313 428.88Z" fill="#BA7855"/>
<path d="M779.763 440.98C780.431 440.98 780.973 440.205 780.973 439.25C780.973 438.294 780.431 437.52 779.763 437.52C779.095 437.52 778.553 438.294 778.553 439.25C778.553 440.205 779.095 440.98 779.763 440.98Z" fill="#BA7855"/>
<g opacity="0.1">
<path opacity="0.1" d="M728.243 488.84C728.243 488.84 726.163 462.21 728.243 457.37C730.323 452.53 728.933 435.93 728.933 435.93C728.933 435.93 723.403 428.67 715.793 412.07C710.943 401.5 711.293 394.15 712.183 390.21C712.402 389.249 712.811 388.341 713.386 387.541C713.962 386.74 714.692 386.063 715.533 385.55C719.943 382.85 729.813 376.26 732.743 369.88C734.893 365.2 737.583 362.83 739.523 361.65L739.653 360.89C739.653 360.89 734.123 361.89 730.313 370.23C727.393 376.61 717.513 383.23 713.103 385.9C712.262 386.413 711.532 387.09 710.956 387.891C710.381 388.691 709.972 389.599 709.753 390.56C708.863 394.5 708.523 401.85 713.363 412.42C720.973 429.02 726.503 436.28 726.503 436.28C726.503 436.28 727.883 452.88 725.813 457.72C723.743 462.56 725.813 489.19 725.813 489.19C725.813 489.19 751.753 494.13 767.093 491.48C751.603 493.33 728.243 488.84 728.243 488.84Z" fill="black"/>
<path opacity="0.1" d="M774.923 397.23C774.453 399.36 774.923 411.89 775.313 419.57C776.983 422.98 778.033 425.25 778.033 425.25C778.033 425.25 776.653 400 777.343 396.89C778.003 393.89 765.853 372.23 764.643 370.09L762.123 370.26C762.123 370.26 775.623 394.12 774.923 397.23Z" fill="black"/>
<path opacity="0.1" d="M814.013 426.28C798.793 426.63 785.303 412.1 785.303 412.1C784.898 412.663 784.603 413.298 784.433 413.97C788.433 417.69 799.433 426.9 811.593 426.62C822.684 426.553 833.769 427.131 844.793 428.35C844.793 428.35 844.723 428.12 844.613 427.73C834.448 426.679 824.232 426.195 814.013 426.28Z" fill="black"/>
<path opacity="0.1" d="M787.013 455.33C787.013 455.33 787.153 457.49 787.073 460.73C790.673 467.87 797.223 480.08 800.153 480.57L799.643 477.73C794.613 471.41 787.013 455.33 787.013 455.33Z" fill="black"/>
</g>
<path d="M796.713 451.84L789.363 453.39L783.563 454.61L786.673 445.96L788.843 445.42L792.213 444.58C792.213 444.58 797.053 420.37 806.743 422.1C816.433 423.83 796.713 451.84 796.713 451.84Z" fill="#714B4F"/>
<path opacity="0.1" d="M789.373 453.42L783.573 454.64L786.683 445.99L788.853 445.45C789.334 448.077 789.508 450.752 789.373 453.42Z" fill="black"/>
<path d="M732.013 396.54C732.013 396.54 740.313 424.54 745.153 428.01C749.993 431.48 779.393 449.11 788.043 444.96C788.043 444.96 790.123 455.34 787.043 457.76C787.043 457.76 754.793 456.5 754.533 456.38C754.533 456.38 733.433 453.61 729.973 443.24C726.513 432.87 722.363 415.24 722.363 415.24L732.013 396.54Z" fill="#C48C96"/>
<path opacity="0.1" d="M742.413 351.58C742.413 351.58 741.713 354.29 740.773 358.23C742.688 361.857 745.744 364.754 749.469 366.471C753.194 368.188 757.381 368.63 761.383 367.73C760.553 364.18 760.733 360.59 763.163 357.81L742.413 351.58Z" fill="black"/>
<path d="M756.943 367.49C767.26 367.49 775.623 359.126 775.623 348.81C775.623 338.493 767.26 330.13 756.943 330.13C746.626 330.13 738.263 338.493 738.263 348.81C738.263 359.126 746.626 367.49 756.943 367.49Z" fill="#714B4F"/>
<path opacity="0.1" d="M773.163 343.67C774.516 344.048 775.933 344.136 777.323 343.93C778.762 343.54 780.035 342.692 780.948 341.513C781.861 340.335 782.365 338.891 782.383 337.4C782.357 335.909 781.997 334.443 781.331 333.109C780.665 331.775 779.709 330.607 778.533 329.69C776.953 328.37 775.063 327.44 773.613 325.97C771.903 324.22 770.963 321.88 769.613 319.82C767.389 316.413 764.091 313.848 760.243 312.53C757.383 311.53 753.873 311.45 751.673 313.53C750.543 314.6 749.883 316.13 748.623 317.04C746.793 318.34 744.313 317.96 742.083 318.22C740.062 318.527 738.148 319.326 736.509 320.547C734.87 321.767 733.556 323.372 732.683 325.22C730.976 328.988 730.651 333.236 731.763 337.22C732.193 338.92 732.833 340.56 733.293 342.22C734.293 345.74 734.493 349.43 735.613 352.9C736.733 356.37 739.043 359.77 742.543 360.81C742.267 356.915 743.037 353.017 744.773 349.52C745.059 348.755 745.623 348.126 746.353 347.76C746.976 347.6 747.63 347.6 748.253 347.76C752.639 348.409 757.114 347.503 760.903 345.2C762.233 344.4 764.303 341.64 765.713 341.37C767.533 341.06 771.263 343.25 773.163 343.67Z" fill="black"/>
<path d="M773.163 342.98C774.516 343.358 775.933 343.446 777.323 343.24C778.762 342.85 780.035 342.002 780.948 340.823C781.861 339.645 782.365 338.201 782.383 336.71C782.357 335.219 781.997 333.753 781.331 332.419C780.665 331.085 779.709 329.917 778.533 329C776.953 327.68 775.063 326.75 773.613 325.28C771.903 323.53 770.963 321.19 769.613 319.13C767.389 315.723 764.091 313.158 760.243 311.84C757.383 310.84 753.873 310.76 751.673 312.84C750.543 313.91 749.883 315.44 748.623 316.35C746.793 317.65 744.313 317.27 742.083 317.53C740.062 317.837 738.148 318.636 736.509 319.857C734.87 321.077 733.556 322.682 732.683 324.53C730.976 328.298 730.651 332.546 731.763 336.53C732.193 338.23 732.833 339.87 733.293 341.53C734.293 345.05 734.493 348.74 735.613 352.21C736.733 355.68 739.043 359.08 742.543 360.12C742.275 356.227 743.052 352.332 744.793 348.84C745.079 348.075 745.643 347.446 746.373 347.08C746.996 346.92 747.65 346.92 748.273 347.08C752.659 347.729 757.134 346.823 760.923 344.52C762.253 343.72 764.323 340.96 765.733 340.69C767.533 340.37 771.263 342.56 773.163 342.98Z" fill="#503F43"/>
<path d="M959.513 281.33L944.273 452.03L875.773 471.03L807.463 452.03L792.243 281.33H959.513Z" fill="#E44D26"/>
<path d="M875.873 456.51L931.223 441.17L944.223 295.29H875.873V456.51Z" fill="#F16529"/>
<path d="M846.253 337.17H875.873V316.23H823.373L823.873 321.85L829.023 379.55H875.883V358.61H848.173L846.253 337.17ZM851.013 390.02H830.013L832.943 422.9L875.783 434.84H875.883V412.99H875.793L852.473 406.69L851.013 390.02Z" fill="#EBEBEB"/>
<path d="M807.813 234.93H818.453V245.44H828.183V234.93H838.823V266.77H828.183V256.11H818.453V266.77H807.813V234.93ZM852.813 245.49H843.443V234.93H872.823V245.49H863.453V266.77H852.823V245.49H852.813ZM877.493 234.93H888.593L895.423 246.12L902.243 234.93H913.343V266.77H902.743V250.99L895.423 262.31H895.243L887.913 250.99V266.77H877.493V234.93ZM918.633 234.93H929.273V256.24H944.273V266.76H918.663V234.93H918.633Z" fill="black"/>
<path d="M875.803 379.55H901.583L899.153 406.71L875.803 413.01V434.84L918.733 422.94L919.043 419.4L923.963 364.27L924.473 358.65H875.803V379.59V379.55ZM875.803 337.12V337.17H926.383L926.803 332.46L927.803 321.84L928.303 316.22H875.803V337.11V337.12Z" fill="white"/>
<path d="M345.733 407.35C343.783 401.64 340.973 394.35 338.733 392.69C338.598 392.582 338.45 392.491 338.293 392.42H338.013V385.37L332.753 386.21C331.909 383.662 331.27 381.05 330.843 378.4C331.35 378.907 331.995 379.252 332.698 379.393C333.401 379.534 334.13 379.463 334.793 379.19C334.703 379.05 334.633 378.9 334.553 378.75L334.793 378.65C333.965 377.189 333.528 375.539 333.523 373.86C333.567 372.328 333.812 370.808 334.253 369.34C335.193 366.09 336.783 363.05 337.673 359.79C338.242 357.685 338.511 355.51 338.473 353.33C338.5 349.636 337.657 345.988 336.013 342.68C335.605 341.728 334.966 340.892 334.153 340.25C333.413 339.84 332.652 339.469 331.873 339.14C330.569 338.261 329.445 337.141 328.563 335.84C324.827 331.292 319.826 327.954 314.193 326.25C312.726 325.705 311.137 325.581 309.603 325.89C306.073 326.89 304.783 331.22 301.923 333.51C299.393 335.51 295.923 335.74 292.763 336.42C289.519 336.972 286.533 338.536 284.233 340.89C282.737 342.599 281.922 344.799 281.943 347.07C281.857 348.13 282.044 349.194 282.487 350.16C282.93 351.127 283.614 351.963 284.473 352.59C285.45 353.233 286.558 353.651 287.716 353.815C288.875 353.98 290.055 353.886 291.173 353.54C290.3 356.556 290.059 359.72 290.466 362.834C290.874 365.947 291.92 368.943 293.54 371.633C295.159 374.323 297.317 376.649 299.879 378.466C302.44 380.283 305.349 381.55 308.423 382.19L309.043 383.29C310.934 386.817 312.369 390.57 313.313 394.46C308.473 397.21 303.183 399.78 299.993 400.02C299.866 401.267 299.635 402.501 299.303 403.71C298.558 406.745 297.124 409.568 295.113 411.96C290.773 416.84 271.243 453.74 271.243 453.74C271.243 453.74 270.623 455.21 269.623 457.74C257.493 459.23 237.703 461.38 232.173 460.27L210.473 439.65C210.473 439.65 203.473 445 204.073 451.5L200.163 447.78C200.163 447.78 179.543 463.51 212.103 473.78L261.643 479.53C256.923 493.77 252.523 510.34 253.883 519.36H254.293C255.24 519.358 256.186 519.285 257.123 519.14L257.033 520.74L252.263 606.17C252.263 606.17 251.173 621.9 265.823 628.96C265.823 628.96 283.733 681.59 276.673 687.56C276.673 687.56 277.513 688 278.923 688.62L264.193 701.62C264.193 701.62 253.343 704.33 247.373 703.79C246.324 703.647 245.259 703.895 244.381 704.487C243.503 705.079 242.873 705.973 242.613 707C242.613 707.11 242.613 707.22 242.553 707.34V707.48C242.553 707.59 242.553 707.71 242.553 707.83C242.553 707.95 242.553 707.92 242.553 707.96C242.553 708 242.553 708.16 242.553 708.26V708.39C242.553 708.51 242.553 708.62 242.623 708.74V708.87C242.656 708.997 242.696 709.12 242.743 709.24V709.36C242.793 709.48 242.853 709.6 242.913 709.72V709.8C242.983 709.92 243.053 710.04 243.133 710.16L243.203 710.26C243.29 710.386 243.386 710.513 243.493 710.64L243.573 710.74C243.683 710.87 243.803 710.99 243.933 711.12H243.993L244.393 711.46L244.483 711.53L244.973 711.88L245.093 711.96L245.663 712.29H245.753L246.363 712.59H246.453L247.163 712.88L247.313 712.94L248.103 713.2H248.233L249.083 713.42H249.153L250.153 713.61H250.343L251.343 713.76H251.533L252.683 713.87C254.913 714.04 257.923 714.1 261.403 714.09C261.403 714.09 261.403 714.18 261.403 714.22C261.403 714.26 261.403 714.42 261.403 714.52V714.65C261.403 714.77 261.403 714.88 261.473 715V715.13C261.506 715.256 261.546 715.38 261.593 715.5V715.62C261.643 715.74 261.703 715.86 261.763 715.98V716.06C261.833 716.18 261.903 716.3 261.983 716.42L262.053 716.52C262.14 716.646 262.236 716.773 262.343 716.9L262.423 717C262.533 717.13 262.653 717.25 262.783 717.38H262.833L263.233 717.72L263.323 717.79L263.813 718.14L263.933 718.22L264.493 718.55H264.583L265.193 718.85H265.283L265.993 719.14L266.143 719.2L266.933 719.46H267.063L267.913 719.68H267.983L268.983 719.87H269.173L270.173 720.02H270.363L271.513 720.13C285.623 721.22 330.653 717.96 330.653 717.96V717.83V717.67C331.103 715.57 333.263 703.36 325.583 694.33C325.813 694.09 326.033 693.84 326.243 693.58C326.243 693.58 320.243 683.27 323.533 680.02C326.823 676.77 307.643 620.84 307.643 620.84C307.643 620.84 297.333 604.56 303.303 586.11C309.273 567.66 302.763 547.59 302.763 547.59C302.763 547.59 317.013 543.37 317.273 525.84C317.273 525.31 317.273 524.76 317.273 524.21C317.571 524.253 317.872 524.273 318.173 524.27C318.373 524.284 318.573 524.284 318.773 524.27C318.773 524.27 316.063 514.5 319.313 507.45C322.563 500.4 329.623 506.91 336.133 478.15C340.843 457.34 344.983 433.41 346.923 421.76C347.72 416.932 347.311 411.982 345.733 407.35V407.35ZM221.913 468.35L216.963 463.65C218.603 464.33 220.423 464.99 222.453 465.65L241.103 467.84C232.783 468.59 225.013 469.01 221.913 468.38V468.35Z" fill="url(#paint1_linear_1_3)"/>
<path d="M269.143 465.61C269.143 465.61 230.763 470.94 222.763 469.34L201.443 449.08C201.443 449.08 181.183 464.54 213.173 474.67L272.873 481.6L269.143 465.61Z" fill="#FDC2CC"/>
<path opacity="0.05" d="M269.143 465.61C269.143 465.61 230.763 470.94 222.763 469.34L201.443 449.08C201.443 449.08 181.183 464.54 213.173 474.67L272.873 481.6L269.143 465.61Z" fill="black"/>
<path d="M194.013 479.06L111.073 456.06L92.5929 248.76H295.683L277.183 456.03L194.013 479.06Z" fill="#264DE4"/>
<path d="M261.343 442.84L277.153 265.72H194.153V461.43L261.343 442.84Z" fill="#2965F1"/>
<path d="M135.013 342.57L137.293 367.99H194.193V342.57H135.013ZM130.433 291.11L132.743 316.53H194.183V291.11H130.383H130.433ZM194.183 408.6H194.073L165.753 400.95L163.943 380.67H138.373L141.933 420.59L194.013 435.08H194.133L194.183 408.6Z" fill="#EBEBEB"/>
<path d="M140.393 192.4H171.183V205.28H153.263V218.16H171.183V231.04H140.393V192.4ZM177.393 192.4H208.183V203.6H190.223V205.84H208.143V231.6H177.343V219.84H195.263V217.6H177.343V192.4H177.393ZM214.393 192.4H245.183V203.6H227.173V205.84H245.093V231.6H214.293V219.84H232.213V217.6H214.293V192.4H214.393Z" fill="black"/>
<path d="M253.153 342.57L257.743 291.11H194.013V316.53H229.843L227.533 342.53H194.013V367.95H225.323L222.323 400.95L194.013 408.62V435.07L246.133 420.62L246.513 416.32L252.513 349.38L253.133 342.55L253.153 342.57Z" fill="white"/>
<path d="M283.013 682.03L264.353 698.55C264.353 698.55 253.693 701.22 247.833 700.68C241.973 700.14 239.303 709.74 253.163 710.81C267.023 711.88 311.263 708.68 311.263 708.68C311.263 708.68 315.523 691.62 302.733 682.03H283.013Z" fill="#47465A"/>
<path opacity="0.05" d="M283.013 682.03L264.353 698.55C264.353 698.55 253.693 701.22 247.833 700.68C241.973 700.14 239.303 709.74 253.163 710.81C267.023 711.88 311.263 708.68 311.263 708.68C311.263 708.68 315.523 691.62 302.733 682.03H283.013Z" fill="black"/>
<path opacity="0.3" d="M311.923 701.31C311.891 703.254 311.667 705.19 311.253 707.09C311.253 707.09 267.013 710.29 253.153 709.22C246.483 708.71 243.653 706.22 243.153 703.84C242.543 706.58 244.963 710.19 253.153 710.84C267.013 711.91 311.253 708.71 311.253 708.71C311.774 706.279 311.999 703.794 311.923 701.31Z" fill="white"/>
<path d="M304.853 379.84C304.853 379.84 316.583 396.36 312.313 407.56C308.043 418.76 334.703 395.83 334.703 395.83C334.703 395.83 326.173 380.84 330.443 364.84L304.853 379.84Z" fill="#FDC2CC"/>
<path d="M301.653 688.43L283.013 704.95C283.013 704.95 272.353 707.62 266.493 707.08C260.633 706.54 257.963 716.14 271.823 717.21C285.683 718.28 329.923 715.08 329.923 715.08C329.923 715.08 334.183 698.02 321.393 688.43H301.653Z" fill="#47465A"/>
<path d="M307.013 684.7C304.233 688.13 300.313 689.45 296.213 689.65C286.893 690.09 276.633 684.7 276.633 684.7C283.563 678.84 265.973 627.13 265.973 627.13C251.583 620.2 252.643 604.74 252.643 604.74L257.303 520.84L258.483 499.76L273.413 490.7L285.173 499.7L296.333 508.26C297.06 510.983 297.529 513.769 297.733 516.58C299.033 536.17 283.543 540.78 283.543 540.78C283.543 540.78 289.943 560.5 284.073 578.63C278.203 596.76 288.333 612.75 288.333 612.75C288.333 612.75 307.523 668.19 304.333 671.39C301.143 674.59 307.013 684.7 307.013 684.7Z" fill="#565171"/>
<path opacity="0.05" d="M307.013 684.7C304.233 688.13 300.313 689.45 296.213 689.65C286.893 690.09 276.633 684.7 276.633 684.7C283.563 678.84 265.973 627.13 265.973 627.13C251.583 620.2 252.643 604.74 252.643 604.74L257.303 520.84L258.483 499.76L273.413 490.7L285.173 499.7L296.333 508.26C297.06 510.983 297.529 513.769 297.733 516.58C299.033 536.17 283.543 540.78 283.543 540.78C283.543 540.78 289.943 560.5 284.073 578.63C278.203 596.76 288.333 612.75 288.333 612.75C288.333 612.75 307.523 668.19 304.333 671.39C301.143 674.59 307.013 684.7 307.013 684.7Z" fill="black"/>
<path d="M325.643 691.09C316.583 702.28 295.263 691.09 295.263 691.09C295.692 690.694 296.012 690.195 296.193 689.64C300.103 679.01 283.003 628.19 283.003 628.19C268.613 621.26 267.003 604.74 267.003 604.74L263.233 519.32L262.743 508.26L285.173 499.7L292.063 497.07L315.013 514.66C315.998 518.304 316.483 522.065 316.453 525.84C316.163 543.05 302.193 547.21 302.193 547.21C302.193 547.21 308.593 566.93 302.723 585.06C296.853 603.19 307.013 619.13 307.013 619.13C307.013 619.13 326.203 674.57 323.013 677.77C319.823 680.97 325.643 691.09 325.643 691.09Z" fill="#565171"/>
<path opacity="0.1" d="M316.453 525.84C311.843 525.18 302.513 519.63 297.723 516.62C295.893 515.47 294.723 514.7 294.723 514.7C294.723 514.7 289.923 501.37 277.133 511.5C272.972 514.879 268.273 517.536 263.233 519.36C261.307 520.042 259.322 520.54 257.303 520.85L258.483 499.77L273.413 490.71L285.173 499.71L292.063 497.08L315.013 514.66C315.998 518.304 316.483 522.065 316.453 525.84V525.84Z" fill="black"/>
<path d="M345.303 423.55C343.403 434.99 339.303 458.55 334.703 478.94C328.303 507.19 321.373 500.79 318.183 507.72C314.993 514.65 317.653 524.24 317.653 524.24C312.323 524.77 294.733 513.05 294.733 513.05C294.733 513.05 289.933 499.72 277.143 509.85C264.353 519.98 254.223 519.44 254.223 519.44C251.553 501.85 271.283 454.94 271.283 454.94C271.283 454.94 290.473 418.69 294.733 413.94C296.71 411.592 298.119 408.82 298.853 405.84C299.18 404.654 299.408 403.443 299.533 402.22C306.463 401.69 323.533 389.96 323.533 389.96L336.863 387.83V394.76C337.021 394.83 337.169 394.921 337.303 395.03C339.493 396.7 342.303 403.82 344.173 409.43C345.704 413.972 346.092 418.822 345.303 423.55Z" fill="#E1A0A7"/>
<path d="M283.013 473.61L276.123 472.81L223.313 466.68C191.313 456.55 211.583 441.09 211.583 441.09L232.903 461.35C239.053 462.58 263.183 459.71 273.993 458.35C277.233 457.93 279.283 457.65 279.283 457.65L283.013 473.61Z" fill="#FDC2CC"/>
<path opacity="0.1" d="M334.703 401.65C334.703 401.65 320.843 390.46 300.013 426.7C279.183 462.94 274.423 457.08 274.423 457.08C274.423 457.08 278.683 473.08 276.553 476.27C276.553 476.27 290.943 475.2 296.273 476.27C301.603 477.34 334.653 435.76 334.653 435.76C334.653 435.76 351.763 412.31 334.703 401.65Z" fill="black"/>
<path opacity="0.1" d="M334.173 399.52C334.173 399.52 320.313 388.33 299.523 424.57C278.733 460.81 273.933 454.95 273.933 454.95C273.933 454.95 290.453 473.07 295.783 474.14C301.113 475.21 334.163 433.63 334.163 433.63C334.163 433.63 351.233 410.18 334.173 399.52Z" fill="black"/>
<path opacity="0.1" d="M276.113 472.84C276.333 468.89 274.843 461.95 273.983 458.35C277.223 457.93 279.273 457.65 279.273 457.65L283.003 473.65L276.113 472.84Z" fill="black"/>
<path d="M334.703 400.58C334.703 400.58 320.843 389.39 300.013 425.64C279.183 461.89 274.423 456.02 274.423 456.02C274.423 456.02 278.683 472.02 276.553 475.21C276.553 475.21 290.943 474.14 296.273 475.21C301.603 476.28 334.653 434.7 334.653 434.7C334.653 434.7 351.763 411.24 334.703 400.58Z" fill="#E1A0A7"/>
<path opacity="0.1" d="M331.013 365.93L305.383 380.84C306.467 382.413 307.469 384.042 308.383 385.72C309.857 386.019 311.358 386.17 312.863 386.17C319.693 386.17 322.863 379 326.993 374.17C326.693 370.33 329.833 370.23 331.013 365.93Z" fill="black"/>
<path d="M312.313 385.13C324.679 385.13 334.703 375.105 334.703 362.74C334.703 350.374 324.679 340.35 312.313 340.35C299.947 340.35 289.923 350.374 289.923 362.74C289.923 375.105 299.947 385.13 312.313 385.13Z" fill="#FDC2CC"/>
<path opacity="0.1" d="M284.013 344.63C286.271 342.314 289.205 340.774 292.393 340.23C295.503 339.56 298.913 339.36 301.393 337.37C304.203 335.12 305.463 330.84 308.933 329.88C310.44 329.578 312.002 329.703 313.443 330.24C318.978 331.913 323.892 335.191 327.563 339.66C328.431 340.942 329.538 342.045 330.823 342.91C331.588 343.233 332.336 343.597 333.063 344C333.859 344.633 334.485 345.454 334.883 346.39C337.381 351.436 337.957 357.22 336.503 362.66C335.633 365.87 334.073 368.85 333.143 372.05C332.213 375.25 331.983 378.87 333.673 381.73C332.033 382.57 329.963 381.51 328.933 379.98C327.903 378.45 327.593 376.57 327.053 374.8C325.991 371.325 323.991 368.211 321.273 365.8C319.593 364.32 316.593 363.32 315.423 365.23C314.973 365.97 315.003 366.92 314.613 367.69C313.853 369.2 311.613 369.5 310.183 368.69C308.775 367.718 307.785 366.25 307.413 364.58C305.223 357.15 301.473 352.48 293.533 355.65C290.533 356.83 287.083 357.65 284.233 355.65C280.583 352.97 281.313 347.66 284.013 344.63Z" fill="black"/>
<path d="M284.013 344.09C286.271 341.774 289.205 340.234 292.393 339.69C295.503 339.02 298.913 338.82 301.393 336.83C304.203 334.58 305.463 330.3 308.933 329.34C310.44 329.038 312.002 329.163 313.443 329.7C318.978 331.373 323.892 334.651 327.563 339.12C328.431 340.402 329.538 341.505 330.823 342.37C331.588 342.693 332.336 343.057 333.063 343.46C333.859 344.093 334.485 344.914 334.883 345.85C337.381 350.896 337.957 356.68 336.503 362.12C335.633 365.33 334.073 368.31 333.143 371.51C332.213 374.71 331.983 378.33 333.673 381.19C332.033 382.03 329.963 380.97 328.933 379.44C327.903 377.91 327.593 376.03 327.053 374.26C325.991 370.785 323.991 367.671 321.273 365.26C319.593 363.78 316.593 362.78 315.423 364.69C314.973 365.43 315.003 366.38 314.613 367.15C313.853 368.66 311.613 368.96 310.183 368.15C308.775 367.178 307.785 365.71 307.413 364.04C305.223 356.61 301.473 351.94 293.533 355.11C290.533 356.29 287.083 357.11 284.233 355.11C280.583 352.44 281.313 347.13 284.013 344.09Z" fill="#8F5A6A"/>
<path opacity="0.05" d="M337.273 394.99H326.443C326.443 394.99 305.123 405.65 304.593 405.12C304.233 404.76 300.933 405.38 298.843 405.81C299.17 404.624 299.398 403.413 299.523 402.19C306.453 401.66 323.523 389.93 323.523 389.93L336.853 387.8V394.73C337.003 394.799 337.144 394.886 337.273 394.99V394.99Z" fill="black"/>
<path opacity="0.3" d="M330.573 707.7C330.541 709.644 330.317 711.58 329.903 713.48C329.903 713.48 285.663 716.68 271.803 715.61C265.133 715.1 262.303 712.61 261.803 710.23C261.193 712.97 263.613 716.58 271.803 717.23C285.663 718.3 329.903 715.1 329.903 715.1C330.424 712.669 330.649 710.184 330.573 707.7Z" fill="white"/>
<g opacity="0.05">
<path opacity="0.05" d="M272.073 509.32C264.883 515.02 258.523 517.32 254.343 518.32C254.343 518.72 254.423 519.11 254.483 519.49C254.483 519.49 264.613 520.02 277.403 509.9C279.385 508.202 281.727 506.977 284.253 506.32C281.463 504.95 277.483 505.04 272.073 509.32Z" fill="black"/>
<path opacity="0.05" d="M344.413 409.38C342.503 403.77 339.733 396.66 337.543 394.98C337.408 394.871 337.261 394.78 337.103 394.71C337.103 394.71 332.693 394.86 332.843 394.98C335.033 396.65 337.173 403.24 339.083 408.84C340.631 413.392 341.029 418.256 340.243 423C338.343 434.44 334.243 458 329.643 478.39C323.243 506.64 316.313 500.24 313.123 507.17C310.503 512.85 311.813 520.31 312.383 522.82C314.107 523.683 315.996 524.163 317.923 524.23C317.923 524.23 315.253 514.64 318.453 507.71C321.653 500.78 328.583 507.18 334.973 478.93C339.603 458.49 343.673 434.93 345.573 423.54C346.359 418.796 345.961 413.932 344.413 409.38V409.38Z" fill="black"/>
</g>
<path d="M406.363 508.95C408.196 507.456 409.531 505.44 410.193 503.17C410.693 500.87 409.713 498.12 407.513 497.28C405.053 496.34 402.423 498.04 400.433 499.77C398.443 501.5 396.153 503.46 393.543 503.09C394.884 501.874 395.888 500.331 396.456 498.612C397.024 496.893 397.136 495.056 396.783 493.28C396.67 492.544 396.359 491.852 395.883 491.28C394.513 489.82 392.043 490.45 390.403 491.6C385.203 495.26 383.753 502.32 383.723 508.68C383.203 506.39 383.643 504 383.623 501.68C383.603 499.36 382.963 496.68 380.983 495.46C379.755 494.8 378.376 494.473 376.983 494.51C374.643 494.42 372.043 494.66 370.443 496.37C368.443 498.49 368.973 502.06 370.703 504.37C372.433 506.68 375.053 508.17 377.473 509.79C379.412 510.943 381.067 512.519 382.313 514.4C382.459 514.661 382.58 514.935 382.673 515.22H397.323C400.605 513.547 403.646 511.438 406.363 508.95V508.95Z" fill="#87FF63"/>
<path d="M433.273 696.72C435.603 694.55 437.793 691.99 438.473 688.88C439.153 685.77 437.823 682.03 434.843 680.88C431.513 679.6 427.943 681.88 425.243 684.25C422.543 686.62 419.443 689.25 415.913 688.75C417.731 687.101 419.091 685.009 419.86 682.678C420.63 680.347 420.782 677.857 420.303 675.45C420.148 674.456 419.726 673.523 419.083 672.75C417.233 670.75 413.873 671.62 411.663 673.18C404.663 678.18 402.663 687.71 402.613 696.33C401.903 693.22 402.503 689.98 402.483 686.79C402.463 683.6 401.593 680.07 398.903 678.35C397.228 677.449 395.344 677.008 393.443 677.07C390.273 676.95 386.743 677.27 384.583 679.59C381.893 682.47 382.583 687.3 384.933 690.47C387.283 693.64 390.833 695.63 394.103 697.82C396.728 699.385 398.967 701.521 400.653 704.07C400.853 704.426 401.017 704.801 401.143 705.19H421.013C425.463 702.932 429.587 700.083 433.273 696.72V696.72Z" fill="#87FF63"/>
</g>
<defs>
<linearGradient id="paint0_linear_1_3" x1="783.143" y1="645.69" x2="783.143" y2="307.14" gradientUnits="userSpaceOnUse">
<stop stop-color="#808080" stop-opacity="0.25"/>
<stop offset="0.54" stop-color="#808080" stop-opacity="0.12"/>
<stop offset="1" stop-color="#808080" stop-opacity="0.1"/>
</linearGradient>
<linearGradient id="paint1_linear_1_3" x1="58027" y1="306976" x2="58027" y2="151015" gradientUnits="userSpaceOnUse">
<stop stop-color="#808080" stop-opacity="0.25"/>
<stop offset="0.54" stop-color="#808080" stop-opacity="0.12"/>
<stop offset="1" stop-color="#808080" stop-opacity="0.1"/>
</linearGradient>
<clipPath id="clip0_1_3">
<rect width="1030.01" height="729.86" fill="white"/>
</clipPath>
</defs>
</svg>
